HIERARCHY
ROOT Hips
{
	OFFSET 0.000000 1.471914 24.280096
	CHANNELS 6 Xposition Yposition Zposition Xrotation Yrotation Zrotation
	JOINT Spine
	{
		OFFSET 0.000000 0.900110 1.860670
		CHANNELS 6 Xposition Yposition Zposition Xrotation Yrotation Zrotation
		JOINT Spine1
		{
			OFFSET 0.000000 0.400320 2.270309
			CHANNELS 6 Xposition Yposition Zposition Xrotation Yrotation Zrotation
			JOINT Spine2
			{
				OFFSET 0.000000 0.200920 2.296560
				CHANNELS 6 Xposition Yposition Zposition Xrotation Yrotation Zrotation
				JOINT Spine3
				{
					OFFSET 0.000000 0.000000 2.305330
					CHANNELS 6 Xposition Yposition Zposition Xrotation Yrotation Zrotation
					JOINT Neck
					{
						OFFSET 0.000000 -0.864490 6.051487
						CHANNELS 6 Xposition Yposition Zposition Xrotation Yrotation Zrotation
						JOINT Head
						{
							OFFSET 0.000000 -0.550429 3.121674
							CHANNELS 6 Xposition Yposition Zposition Xrotation Yrotation Zrotation
							End Site
							{
								OFFSET 0.000000 0.000000 3.731750
							}
						}
					}
					JOINT RightShoulder
					{
						OFFSET -0.788280 -1.313800 4.256718
						CHANNELS 6 Xposition Yposition Zposition Xrotation Yrotation Zrotation
						JOINT RightArm
						{
							OFFSET -3.915130 0.000000 0.000000
							CHANNELS 6 Xposition Yposition Zposition Xrotation Yrotation Zrotation
							JOINT RightForeArm
							{
								OFFSET -6.914910 0.000000 0.000000
								CHANNELS 6 Xposition Yposition Zposition Xrotation Yrotation Zrotation
								JOINT RightHand
								{
									OFFSET -6.096219 0.000000 0.000000
									CHANNELS 6 Xposition Yposition Zposition Xrotation Yrotation Zrotation
									JOINT RightHandEnd
									{
										OFFSET -1.749950 0.000000 0.000000
										CHANNELS 6 Xposition Yposition Zposition Xrotation Yrotation Zrotation
										End Site
										{
											OFFSET -1.749950 0.000000 0.000000
										}
									}
									JOINT RightHandThumb1
									{
										OFFSET -0.699980 -1.166630 -0.466648
										CHANNELS 6 Xposition Yposition Zposition Xrotation Yrotation Zrotation
										End Site
										{
											OFFSET -1.690319 -0.452920 0.000000
										}
									}
								}
							}
						}
					}
					JOINT LeftShoulder
					{
						OFFSET 0.788280 -1.313800 4.256718
						CHANNELS 6 Xposition Yposition Zposition Xrotation Yrotation Zrotation
						JOINT LeftArm
						{
							OFFSET 3.915130 0.000000 0.000000
							CHANNELS 6 Xposition Yposition Zposition Xrotation Yrotation Zrotation
							JOINT LeftForeArm
							{
								OFFSET 6.914910 0.000000 0.000000
								CHANNELS 6 Xposition Yposition Zposition Xrotation Yrotation Zrotation
								JOINT LeftHand
								{
									OFFSET 6.096219 0.000000 0.000000
									CHANNELS 6 Xposition Yposition Zposition Xrotation Yrotation Zrotation
									JOINT LeftHandEnd
									{
										OFFSET 1.749950 0.000000 0.000000
										CHANNELS 6 Xposition Yposition Zposition Xrotation Yrotation Zrotation
										End Site
										{
											OFFSET 1.749950 0.000000 0.000000
										}
									}
									JOINT LeftHandThumb1
									{
										OFFSET 0.699980 -1.166630 -0.466648
										CHANNELS 6 Xposition Yposition Zposition Xrotation Yrotation Zrotation
										End Site
										{
											OFFSET 1.690319 -0.452920 0.000000
										}
									}
								}
							}
						}
					}
				}
			}
		}
	}
	JOINT RightUpLeg
	{
		OFFSET -2.338570 -0.252550 -0.551512
		CHANNELS 6 Xposition Yposition Zposition Xrotation Yrotation Zrotation
		JOINT RightLeg
		{
			OFFSET 0.000000 0.000000 -10.744959
			CHANNELS 6 Xposition Yposition Zposition Xrotation Yrotation Zrotation
			JOINT RightFoot
			{
				OFFSET 0.000000 -0.000001 -10.930849
				CHANNELS 6 Xposition Yposition Zposition Xrotation Yrotation Zrotation
				JOINT RightToeBase
				{
					OFFSET 0.000000 -4.087269 -1.487650
					CHANNELS 6 Xposition Yposition Zposition Xrotation Yrotation Zrotation
					End Site
					{
						OFFSET 0.000000 -1.891870 0.000000
					}
				}
			}
		}
	}
	JOINT LeftUpLeg
	{
		OFFSET 2.338570 -0.252550 -0.551512
		CHANNELS 6 Xposition Yposition Zposition Xrotation Yrotation Zrotation
		JOINT LeftLeg
		{
			OFFSET 0.000000 0.000000 -10.744959
			CHANNELS 6 Xposition Yposition Zposition Xrotation Yrotation Zrotation
			JOINT LeftFoot
			{
				OFFSET 0.000000 -0.000001 -10.930849
				CHANNELS 6 Xposition Yposition Zposition Xrotation Yrotation Zrotation
				JOINT LeftToeBase
				{
					OFFSET 0.000000 -4.087269 -1.487650
					CHANNELS 6 Xposition Yposition Zposition Xrotation Yrotation Zrotation
					End Site
					{
						OFFSET 0.000000 -1.891870 0.000000
					}
				}
			}
		}
	}
}
MOTION
Frames: 6
Frame Time: 0.041667
-0.000058 26.544682 40.303249 -15.075059 7.858011 -20.194096 -0.000006 0.900095 1.860703 32.691205 -4.664384 -1.898830 -0.000001 0.400302 2.270293 -0.000003 -0.000002 -0.000001 0.000012 0.200924 2.296518 0.000003 -0.000001 -0.000000 0.000009 -0.000026 2.305339 0.000016 0.000000 -2.197868 -0.000010 -0.864469 6.051527 -5.522637 -1.020159 -171.679837 0.000015 -0.550437 3.121685 -0.000000 0.000000 -0.000002 -0.788284 -1.313759 4.256753 -124.515469 51.807210 -56.900674 -3.915106 -0.000017 -0.000015 0.000000 0.000003 -0.000001 -6.914876 0.000006 -0.000004 0.000006 -0.000002 -26.883992 -6.096201 -0.000004 0.000017 -0.000026 -0.000015 -0.000094 -1.749933 0.000008 -0.000023 -0.000000 -0.000000 0.000001 -0.699997 -1.166610 -0.466641 0.000008 -0.000000 -0.000007 0.788260 -1.313801 4.256715 -121.675531 -54.243863 60.104060 3.915147 -0.000010 0.000008 0.000001 0.000002 0.000001 6.914893 -0.000010 -0.000000 0.000008 0.000004 24.911513 6.096226 0.000035 0.000009 -0.000014 0.000025 0.000055 1.749930 0.000014 -0.000012 -0.000007 0.000001 0.000001 0.699983 -1.166608 -0.466666 0.000008 -0.000002 -0.000014 -2.338577 -0.252554 -0.551512 27.469527 -3.770992 -1.616564 0.000004 -0.000001 -10.744951 5.206878 3.075728 -0.621686 -0.000009 0.000007 -10.930852 -0.000002 -0.000002 -0.000003 0.000014 -4.087273 -1.487638 0.000007 0.000002 0.000001 2.338569 -0.252554 -0.551455 26.995389 0.922890 -1.585145 0.000000 -0.000003 -10.744924 3.850923 -0.829929 -0.147531 0.000006 0.000005 -10.930867 0.000020 -0.000005 0.000001 -0.000008 -4.087229 -1.487645 -0.000001 -0.000001 0.000000 
-0.000058 26.544689 40.303268 -14.735925 8.010909 -20.541536 -0.000007 0.900100 1.860693 32.516502 -4.610356 -1.818012 -0.000000 0.400308 2.270294 -0.000006 -0.000000 0.000003 0.000011 0.200925 2.296518 -0.000001 0.000000 0.000003 0.000009 -0.000029 2.305343 0.000015 0.000003 -1.944178 -0.000012 -0.864468 6.051525 -5.318248 -1.544795 -171.955763 0.000016 -0.550432 3.121689 0.000001 -0.000000 -0.000000 -0.788285 -1.313762 4.256759 -125.167096 52.657125 -56.167408 -3.915109 -0.000017 -0.000015 -0.000001 0.000003 -0.000003 -6.914869 0.000005 -0.000000 0.000005 -0.000001 -26.561704 -6.096197 -0.000005 0.000013 -0.000028 -0.000017 -0.000090 -1.749932 0.000009 -0.000020 0.000000 -0.000001 0.000001 -0.699997 -1.166612 -0.466641 0.000010 -0.000001 -0.000008 0.788261 -1.313800 4.256725 -122.390911 -55.535278 59.120922 3.915147 -0.000008 0.000008 -0.000003 0.000003 -0.000002 6.914897 -0.000008 -0.000000 0.000008 0.000005 24.628819 6.096235 0.000034 0.000004 -0.000009 0.000026 0.000052 1.749938 0.000010 -0.000011 -0.000002 -0.000002 0.000000 0.699993 -1.166611 -0.466666 0.000008 -0.000004 -0.000016 -2.338578 -0.252545 -0.551517 27.150786 -3.874506 -1.538787 0.000004 -0.000003 -10.744952 5.106045 3.022431 -0.609318 -0.000007 0.000007 -10.930850 -0.000002 -0.000002 -0.000001 0.000012 -4.087268 -1.487638 0.000006 -0.000000 -0.000000 2.338567 -0.252550 -0.551458 26.658006 0.757792 -1.508121 -0.000002 -0.000001 -10.744925 3.662251 -0.815509 -0.143951 0.000005 0.000003 -10.930864 0.000022 -0.000003 -0.000000 -0.000008 -4.087235 -1.487648 -0.000000 -0.000001 -0.000000 
-0.000059 26.544691 40.303246 -14.724146 7.891816 -20.477360 -0.000007 0.900095 1.860691 32.304548 -4.626612 -1.829894 -0.000001 0.400304 2.270294 -0.000006 -0.000002 -0.000000 0.000011 0.200926 2.296518 -0.000001 0.000000 0.000002 0.000009 -0.000031 2.305339 0.000013 0.000003 -1.930536 -0.000010 -0.864470 6.051535 -5.156551 -1.580471 -171.590512 0.000015 -0.550431 3.121681 0.000001 0.000001 -0.000001 -0.788286 -1.313762 4.256757 -125.061419 51.866749 -56.014569 -3.915105 -0.000022 -0.000015 -0.000001 0.000000 -0.000001 -6.914877 0.000001 0.000007 0.000005 -0.000001 -26.615202 -6.096196 -0.000002 0.000016 -0.000026 -0.000015 -0.000091 -1.749930 0.000005 -0.000016 0.000001 -0.000001 0.000002 -0.699992 -1.166617 -0.466638 0.000012 -0.000001 -0.000006 0.788260 -1.313801 4.256723 -122.367784 -55.558497 58.994243 3.915148 -0.000008 0.000011 -0.000003 0.000001 -0.000002 6.914895 -0.000012 -0.000004 0.000010 0.000002 24.554636 6.096234 0.000031 0.000012 -0.000005 0.000026 0.000055 1.749936 0.000009 -0.000008 -0.000000 -0.000001 0.000000 0.699990 -1.166610 -0.466666 0.000009 -0.000002 -0.000015 -2.338578 -0.252553 -0.551519 27.032991 -3.739583 -1.551279 0.000004 -0.000001 -10.744944 5.202402 2.921736 -0.612219 -0.000006 0.000005 -10.930851 -0.000003 -0.000001 -0.000001 0.000014 -4.087275 -1.487636 0.000004 0.000002 0.000002 2.338569 -0.252555 -0.551457 26.682745 0.781396 -1.527840 -0.000003 -0.000002 -10.744924 3.450238 -0.437334 -0.136345 0.000004 0.000000 -10.930865 0.000022 -0.000004 0.000002 -0.000008 -4.087233 -1.487645 0.000002 -0.000002 0.000000 
-0.000052 26.544687 40.303257 -14.620198 7.924307 -20.431744 -0.000007 0.900096 1.860696 32.062493 -4.488656 -1.807659 -0.000002 0.400303 2.270294 -0.000003 -0.000000 0.000003 0.000011 0.200923 2.296515 -0.000001 -0.000000 0.000002 0.000009 -0.000024 2.305343 0.000015 0.000001 -1.983888 -0.000009 -0.864471 6.051524 -5.052880 -2.024235 -172.372350 0.000016 -0.550431 3.121685 0.000000 0.000001 -0.000002 -0.788284 -1.313762 4.256757 -125.767798 52.503613 -55.321623 -3.915102 -0.000019 -0.000015 -0.000003 0.000003 -0.000001 -6.914878 0.000001 0.000004 0.000006 -0.000001 -26.358622 -6.096195 -0.000005 0.000015 -0.000029 -0.000016 -0.000091 -1.749934 0.000012 -0.000023 -0.000001 -0.000001 0.000001 -0.699998 -1.166609 -0.466637 0.000006 -0.000002 -0.000008 0.788260 -1.313799 4.256723 -122.563086 -55.861597 58.356911 3.915150 -0.000004 0.000008 -0.000004 0.000001 -0.000001 6.914891 -0.000007 -0.000008 0.000011 0.000003 24.623397 6.096229 0.000034 0.000008 -0.000014 0.000026 0.000054 1.749937 0.000011 -0.000015 -0.000006 -0.000000 0.000001 0.699991 -1.166609 -0.466666 0.000008 -0.000003 -0.000015 -2.338579 -0.252550 -0.551518 26.916514 -3.825218 -1.537233 0.000002 -0.000003 -10.744949 5.229739 2.878745 -0.622146 -0.000010 0.000012 -10.930848 -0.000005 -0.000001 -0.000001 0.000013 -4.087266 -1.487636 0.000001 0.000002 0.000002 2.338567 -0.252552 -0.551458 26.621839 0.455458 -1.517220 -0.000001 -0.000002 -10.744924 3.403529 -0.017044 -0.153002 0.000003 0.000006 -10.930866 0.000024 -0.000003 0.000002 -0.000008 -4.087234 -1.487645 0.000003 -0.000001 0.000001 
-0.000054 26.544691 40.303253 -14.666020 7.819569 -20.074078 -0.000007 0.900096 1.860700 31.914315 -4.399093 -1.825434 -0.000002 0.400304 2.270298 -0.000006 0.000000 0.000006 0.000011 0.200924 2.296520 0.000002 0.000002 0.000004 0.000009 -0.000028 2.305339 0.000015 0.000000 -1.918209 -0.000011 -0.864472 6.051519 -4.724938 -2.158837 -173.217573 0.000015 -0.550437 3.121685 0.000003 0.000001 -0.000006 -0.788284 -1.313766 4.256749 -125.548002 51.772028 -55.131252 -3.915103 -0.000016 -0.000015 -0.000001 0.000000 -0.000004 -6.914870 0.000002 0.000004 0.000006 -0.000002 -26.535574 -6.096195 -0.000001 0.000014 -0.000028 -0.000014 -0.000095 -1.749933 0.000012 -0.000027 0.000001 -0.000000 0.000001 -0.699996 -1.166610 -0.466637 0.000005 -0.000001 -0.000006 0.788264 -1.313803 4.256711 -122.661018 -55.728326 57.758866 3.915150 -0.000009 0.000015 0.000001 0.000000 0.000001 6.914889 -0.000008 -0.000004 0.000008 0.000002 24.836019 6.096229 0.000033 0.000004 -0.000011 0.000026 0.000055 1.749936 0.000008 -0.000011 -0.000003 -0.000001 0.000001 0.699989 -1.166613 -0.466666 0.000009 -0.000004 -0.000015 -2.338578 -0.252549 -0.551513 27.064666 -3.833366 -1.567113 0.000003 -0.000004 -10.744954 4.997890 2.827130 -0.598767 -0.000008 0.000006 -10.930853 -0.000003 -0.000001 0.000000 0.000011 -4.087267 -1.487635 0.000006 0.000001 0.000002 2.338567 -0.252549 -0.551454 26.571210 0.287725 -1.536088 -0.000000 -0.000003 -10.744921 3.316926 0.370205 -0.161335 0.000005 0.000001 -10.930867 0.000020 -0.000004 0.000001 -0.000010 -4.087227 -1.487644 -0.000001 -0.000001 0.000004 
-0.000055 26.544689 40.303253 -14.705133 7.856038 -20.030397 -0.000007 0.900098 1.860693 31.761937 -4.412711 -1.834514 -0.000002 0.400306 2.270289 -0.000006 -0.000001 0.000004 0.000013 0.200926 2.296510 0.000001 -0.000000 0.000003 0.000010 -0.000028 2.305343 0.000015 0.000004 -1.659666 -0.000010 -0.864465 6.051527 -4.567137 -2.001541 -174.225968 0.000015 -0.550433 3.121689 0.000002 0.000000 -0.000002 -0.788285 -1.313757 4.256756 -127.421427 52.776599 -53.164686 -3.915101 -0.000020 -0.000015 -0.000002 0.000000 0.000000 -6.914875 0.000001 -0.000003 0.000006 -0.000001 -26.323706 -6.096199 -0.000004 0.000015 -0.000030 -0.000015 -0.000092 -1.749926 0.000010 -0.000020 0.000003 -0.000004 0.000000 -0.699996 -1.166611 -0.466634 0.000010 -0.000004 -0.000005 0.788263 -1.313797 4.256721 -122.790846 -56.020552 57.230339 3.915151 -0.000008 0.000011 -0.000006 0.000002 0.000002 6.914891 -0.000008 -0.000007 0.000005 0.000001 24.526137 6.096228 0.000036 0.000007 -0.000015 0.000027 0.000050 1.749942 0.000012 -0.000014 -0.000005 -0.000001 0.000002 0.699990 -1.166608 -0.466666 0.000004 -0.000002 -0.000015 -2.338578 -0.252549 -0.551521 27.082530 -3.874278 -1.582692 0.000004 -0.000005 -10.744948 4.839804 2.858332 -0.585629 -0.000008 0.000006 -10.930850 -0.000007 -0.000004 -0.000000 0.000012 -4.087272 -1.487638 0.000003 0.000001 0.000003 2.338567 -0.252551 -0.551459 26.687156 0.218548 -1.556615 -0.000001 0.000001 -10.744922 3.411124 0.466631 -0.171521 0.000005 0.000002 -10.930864 0.000024 -0.000004 -0.000001 -0.000009 -4.087231 -1.487646 0.000000 -0.000001 0.000000 
